<svg width="100" height="100" viewBox="0 0 100 100" fill="none" xmlns="http://www.w3.org/2000/svg">
<g clip-path="url(#clip0_497_15)">
<path d="M72.5738 18.3685C72.7805 17.7828 72.2545 17.2527 72.2545 17.2527C72.2545 17.2527 68.0052 11.1818 54.2497 10.6186C46.8847 10.3177 37.0074 12.3482 30.2442 16.3896C17.9899 23.7066 16.7543 34.6012 16.7543 34.6012C16.6992 34.8694 16.627 35.6804 16.9326 36.0058C17.2436 36.3368 17.665 36.3046 18.1778 36.1032C22.5554 34.3822 35.6077 29.3321 43.877 26.679C55.6457 22.9065 65.3529 20.4552 71.5932 19.039C72.0365 18.9389 72.4292 18.7736 72.5738 18.3685Z" fill="#FFBB36"/>
<path d="M91.2667 64.9809C84.098 80.43 70.3447 91.1813 52.3205 91.426C39.1951 91.6047 27.612 87.29 19.2466 79.7633L14.1872 81.8407L14.1956 74.3233C8.68327 67.1887 5.4872 58.1637 5.4872 47.9112C5.4872 21.6519 26.4467 0.9525 55.678 0.9525C60.4492 0.9525 64.7615 1.665 68.0127 2.37175C63.0035 0.833507 58.026 0 52.4854 0C21.1134 0 0.0011 24.4105 0 49.5843C0 77.0173 22.4268 99.996 51.8637 99.996C79.98 99.996 95.1493 80.974 100 69.534L91.2667 64.9809Z" fill="#E16C00"/>
<path d="M31.4457 82.1742C31.1553 82.8162 31.8177 83.4528 31.8177 83.4528C34.6573 86.8722 47.2655 91.2075 60.9507 88.0335C81.8503 83.1828 86.2656 68.9948 86.7663 66.9915C86.869 66.583 86.9503 65.9261 86.555 65.5319C86.2236 65.2028 85.753 65.1993 85.0996 65.3444C70.5836 68.6188 46.429 75.6942 32.5029 81.4202C31.9035 81.6662 31.6322 81.7568 31.4457 82.1742Z" fill="#FFBB36"/>
<path d="M23.2157 66.5564C23.1964 64.3337 22.0876 63.1209 20.1716 64.6195L20.1676 71.7648C20.1676 71.7648 20.7871 71.3375 21.2416 71.0075C22.3619 70.1975 23.242 68.7415 23.2157 66.5564ZM20.1338 60.0977C20.4321 59.9177 20.7251 59.7175 21.0122 59.4977C22.0502 58.7099 22.7889 57.2489 22.7975 55.3571C22.8082 53.2027 21.6697 52.6459 20.136 53.8815L20.1338 60.0977ZM28.2448 65.5355C28.3071 71.1748 25.7005 74.1755 22.3048 76.3675L15.3491 80.9728L15.333 51.6051C15.333 51.6051 19.7153 48.8208 21.1451 48.0103C25.2092 45.7055 27.5989 48.4837 27.5989 52.7147C27.5989 55.5381 26.8235 57.9378 25.1405 60.0466C26.7979 60.4773 28.213 62.5989 28.2448 65.5355ZM41.4487 40.7479C41.4487 38.2744 40.3571 37.6165 39.0367 38.2089C37.9691 38.685 36.7257 39.4417 36.7257 39.4417L36.7171 57.6996C36.7043 59.5181 36.5237 61.7947 35.0861 62.3587C33.9827 62.7923 33.4608 61.6447 33.4597 59.8295L33.4441 44.8855C33.4441 42.3993 32.3342 41.6549 31.0179 42.3355C29.5384 43.1055 28.6493 43.6599 28.6493 43.6599C28.6493 43.6599 28.6665 56.5889 28.6462 61.7591C28.6273 67.8195 31.3087 70.8455 35.3957 68.9641C39.0011 67.3028 41.4085 64.1588 41.4541 56.0871L41.4487 40.7479ZM80.1057 48.2934C81.1443 47.9443 81.7923 46.7996 81.7923 44.8217C81.7923 43.0399 81.7963 41.6849 81.7963 41.6849L76.1543 43.6061L76.165 38.4331C76.165 38.4331 78.9303 37.5195 79.6983 37.2584C80.663 36.9287 81.1683 36.1089 81.1683 34.3902C81.1683 32.7871 81.1623 31.3999 81.1623 31.3999L76.163 33.053L76.1623 28.9515C76.1623 28.9515 78.761 28.1061 80.161 27.6473C81.2523 27.29 81.6123 26.1253 81.6123 24.5228C81.6123 23.4792 81.623 21.4137 81.623 21.4137C79.1297 22.0997 74.389 23.5757 71.433 24.6309L71.393 51.4024C71.393 51.4024 77.0137 49.3391 80.1057 48.2934ZM47.5023 47.2121C47.5063 47.2071 50.2934 44.9633 50.2629 41.4039C50.2354 38.3603 48.4366 39.0265 47.5033 39.56L47.5023 47.2121ZM47.5094 51.3419C47.5094 51.3419 47.5001 56.469 47.4955 58.5378C47.4841 60.4773 46.6343 61.878 45.5585 62.5185C44.6592 62.9994 42.7478 64.0244 42.7478 64.0244L42.7553 36.4563C42.7553 36.4563 46.702 34.3137 49.0229 33.4732C52.6294 32.1659 55.1943 34.7233 55.1479 39.2635C55.1256 43.5861 53.5783 46.209 52.1884 48.0047L55.2427 52.5749C56.1813 53.992 56.2469 56.5539 55.1911 58.1021C54.5652 59.0185 52.8911 59.9683 51.5804 57.8894L47.5094 51.3419ZM87.4423 32.3847C87.4477 32.3847 90.1957 30.7538 90.1643 27.3205C90.1357 24.4167 88.301 24.9423 87.435 25.2438L87.4423 32.3847ZM82.831 47.4907L82.839 21.0566C82.839 21.0566 87.7917 19.6923 89.0703 19.4358C92.621 18.7252 95.003 21.7961 94.9543 26.1585C94.9357 29.9949 93.389 32.3036 92.0743 33.6887C92.0743 33.6887 94.4897 37.9291 95.137 39.0509C96.0063 40.5631 95.9677 43.1481 94.681 44.4143C93.417 45.6567 92.165 45.0067 91.4377 43.7555L87.451 36.4686C87.451 36.4686 87.4637 40.9504 87.4603 42.9072C87.449 44.8551 86.7257 46.275 85.429 46.6931L82.831 47.4907Z" fill="#EC1D23"/>
<path d="M70.283 36.3956L63.2574 38.8819C63.2574 38.8819 63.2489 40.0387 63.2478 41.9271C63.2574 43.3432 63.8947 44.2625 64.8115 43.9683C65.3895 43.7813 65.8523 43.6141 65.8523 43.6141L65.863 46.6549C65.8705 47.8578 64.7121 48.6456 63.5093 48.6022C61.8237 48.534 60.8891 46.4928 60.8649 42.6088C60.9173 37.5018 62.4589 34.5038 64.5586 33.6667C65.6073 33.2458 66.5615 33.4508 67.303 33.6007C69.113 34.0564 70.155 32.6963 70.1923 30.365C70.2297 27.868 68.809 26.3237 65.7582 26.4886C59.1438 26.8445 55.7617 34.2506 55.7617 43.0895C55.7617 52.1416 59.5562 56.1401 64.1878 54.8356C66.805 54.013 68.107 52.6884 69.009 51.4554C69.911 50.2226 70.283 48.3784 70.283 46.8038V36.3956Z" fill="#EC1D23"/>
<path d="M34.4944 15.8804C26.8108 19.1352 21.6231 26.8826 21.338 30.1621C21.2257 31.4658 23.0269 31.6529 23.1964 30.2686C24.8178 24.2864 29.7801 18.6464 34.4944 15.8804ZM59.9559 21.4392C64.1003 20.4636 66.3761 20.3164 66.4171 18.5399C66.4891 15.5652 57.6447 12.1158 49.5463 12.7406C57.7977 13.2697 62.7473 16.318 62.7745 18.4423C62.7901 19.786 61.5767 20.9717 59.9559 21.4392ZM62.524 87.1912C68.7423 84.8438 74.7183 80.3605 78.0243 73.6452C78.9783 71.7045 76.2197 70.7132 75.4403 72.9925C73.5057 77.7665 69.529 83.3725 62.524 87.1912Z" fill="white"/>
</g>
<defs>
<clipPath id="clip0_497_15">
<rect width="100" height="100" fill="white"/>
</clipPath>
</defs>
</svg>
